<svg xmlns="http://www.w3.org/2000/svg" width="37.243" height="33.745" viewBox="0 0 37.243 33.745">
  <g id="adaptive-layout" transform="translate(0 -24)">
    <path id="Path_61" data-name="Path 61" d="M35.531,24H1.713A1.715,1.715,0,0,0,0,25.713V47.869a1.715,1.715,0,0,0,1.713,1.713h11.52l-.854,2.988h-2.5a.547.547,0,0,0,0,1.093h9.912a.547.547,0,0,0,0-1.093H13.516l.854-2.988h5.418a.547.547,0,1,0,0-1.093H1.713a.62.62,0,0,1-.62-.62V25.713a.62.62,0,0,1,.62-.62H35.531a.62.62,0,0,1,.62.62V47.869a.547.547,0,1,0,1.093,0V25.713A1.715,1.715,0,0,0,35.531,24Z" fill="#8e8cd8"/>
    <path id="Path_62" data-name="Path 62" d="M64.032,56H32.547a.547.547,0,0,0-.547.547V76.371a.547.547,0,0,0,.547.547H49.456a.547.547,0,1,0,0-1.093H33.093V61.758H63.486v2.369a.547.547,0,1,0,1.093,0v-7.58A.547.547,0,0,0,64.032,56ZM33.093,60.665V57.093H63.486v3.571Z" transform="translate(-29.668 -29.668)" fill="#8e8cd8"/>
    <path id="Path_63" data-name="Path 63" d="M162.039,88H144.547a.547.547,0,1,0,0,1.093h17.492a.547.547,0,1,0,0-1.093Z" transform="translate(-133.505 -59.335)" fill="#8e8cd8"/>
    <path id="Path_64" data-name="Path 64" d="M417.713,88h-1.166a.547.547,0,1,0,0,1.093h1.166a.547.547,0,1,0,0-1.093Z" transform="translate(-385.68 -59.335)" fill="#8e8cd8"/>
    <path id="Path_65" data-name="Path 65" d="M64.547,88a.547.547,0,1,0,.386.16A.549.549,0,0,0,64.547,88Z" transform="translate(-59.335 -59.335)" fill="#8e8cd8"/>
    <path id="Path_66" data-name="Path 66" d="M88.547,88a.547.547,0,1,0,.386.16A.547.547,0,0,0,88.547,88Z" transform="translate(-81.586 -59.335)" fill="#8e8cd8"/>
    <path id="Path_67" data-name="Path 67" d="M112.547,88a.547.547,0,1,0,.386.16A.549.549,0,0,0,112.547,88Z" transform="translate(-103.837 -59.335)" fill="#8e8cd8"/>
    <path id="Path_68" data-name="Path 68" d="M307.625,192h-9.912A1.715,1.715,0,0,0,296,193.713v18.075a1.715,1.715,0,0,0,1.713,1.713h9.912a1.715,1.715,0,0,0,1.713-1.713V193.713A1.715,1.715,0,0,0,307.625,192Zm-10.532,3.426h11.151v2.405H297.093Zm0,3.5h11.151v11.151H297.093Zm.62-5.831h9.912a.62.62,0,0,1,.62.62v.62H297.093v-.62A.62.62,0,0,1,297.713,193.093Zm9.912,19.314h-9.912a.62.62,0,0,1-.62-.62v-.62h11.151v.62A.62.62,0,0,1,307.625,212.407Z" transform="translate(-274.426 -155.756)" fill="#f2870f"/>
    <path id="Path_69" data-name="Path 69" d="M326.96,248h-6.414a.547.547,0,1,0,0,1.093h6.414a.547.547,0,1,0,0-1.093Z" transform="translate(-296.677 -207.674)" fill="#8e8cd8"/>
    <path id="Path_70" data-name="Path 70" d="M433.13,248h-.583a.547.547,0,0,0,0,1.093h.583a.547.547,0,1,0,0-1.093Z" transform="translate(-400.514 -207.674)" fill="#8e8cd8"/>
    <path id="Path_71" data-name="Path 71" d="M73.13,160A1.131,1.131,0,0,0,72,161.13v7.58a1.131,1.131,0,0,0,1.13,1.13h8.746a1.131,1.131,0,0,0,1.13-1.13v-7.58a1.131,1.131,0,0,0-1.13-1.13Zm5.2,4.92,3.583-3.162v6.323Zm-.826-.729-3.51-3.1h7.021Zm-4.409,3.891v-6.323l3.583,3.162Zm4.409-2.433,3.51,3.1H73.992Z" transform="translate(-66.752 -126.088)" fill="#f2870f"/>
    <path id="Path_72" data-name="Path 72" d="M248.547,161.093h13.411a.547.547,0,0,0,0-1.093H248.547a.547.547,0,0,0,0,1.093Z" transform="translate(-229.925 -126.088)" fill="#8e8cd8"/>
    <path id="Path_73" data-name="Path 73" d="M249.713,200h-1.166a.547.547,0,0,0,0,1.093h1.166a.547.547,0,0,0,0-1.093Z" transform="translate(-229.925 -163.173)" fill="#8e8cd8"/>
    <path id="Path_74" data-name="Path 74" d="M249.713,240h-1.166a.547.547,0,0,0,0,1.093h1.166a.547.547,0,0,0,0-1.093Z" transform="translate(-229.925 -200.257)" fill="#8e8cd8"/>
    <path id="Path_75" data-name="Path 75" d="M249.713,280h-1.166a.547.547,0,0,0,0,1.093h1.166a.547.547,0,0,0,0-1.093Z" transform="translate(-229.925 -237.342)" fill="#8e8cd8"/>
    <path id="Path_76" data-name="Path 76" d="M335.543,304H329.13a1.131,1.131,0,0,0-1.13,1.13v4.081a1.131,1.131,0,0,0,1.13,1.13h6.414a1.131,1.131,0,0,0,1.13-1.13V305.13A1.131,1.131,0,0,0,335.543,304Zm-2.189,3.17,2.225-1.416v2.832Zm-1.018-.648-2.246-1.429h4.492Zm-3.243,2.064v-2.832l2.225,1.416Zm3.243-.768,2.246,1.429h-4.492Z" transform="translate(-304.094 -259.593)" fill="#8e8cd8"/>
    <path id="Path_77" data-name="Path 77" d="M336.127,408h-7.58a.547.547,0,0,0,0,1.093h7.58a.547.547,0,0,0,0-1.093Z" transform="translate(-304.094 -356.013)" fill="#8e8cd8"/>
  </g>
</svg>
