<svg xmlns="http://www.w3.org/2000/svg" width="20.666" height="22.967" viewBox="0 0 20.666 22.967">
  <defs>
    <style>
      .cls-1 {
        opacity: 0.05;
      }

      .cls-2 {
        opacity: 0.07;
      }

      .cls-3 {
        fill: #707070;
      }
      
      .cls-3::hover{
        fill: red;
      }
    </style>
  </defs>
  <g id="download" transform="translate(-8.316 -11.296)">
    <path id="Path_94" data-name="Path 94" class="cls-1" d="M23.551,32.856l-.007-4.072a4.159,4.159,0,0,0-.451-1.887c3.961-.8,5.889-3.138,5.889-7.147a6.574,6.574,0,0,0-1.388-4.157,4.17,4.17,0,0,0,.154-.689,5.17,5.17,0,0,0-.136-2.1l-.019-.081a7.72,7.72,0,0,0-.294-.975l-.078-.2-.078-.2-.212-.022-.213-.022s-.14-.015-.352-.015a3.671,3.671,0,0,0-1.143.169l-.138.046a7.732,7.732,0,0,0-1.7.751c-.2.12-.421.257-.656.41a14.839,14.839,0,0,0-6.838,0c-.238-.154-.459-.293-.662-.414a7.766,7.766,0,0,0-1.7-.751l-.138-.046a3.661,3.661,0,0,0-1.142-.169c-.212,0-.352.015-.352.015l-.212.022-.211.022-.079.2-.079.2a7.662,7.662,0,0,0-.294.977l-.019.081a5.167,5.167,0,0,0-.136,2.095,4.2,4.2,0,0,0,.162.71,6.6,6.6,0,0,0-1.36,4.136c0,4,1.93,6.34,5.9,7.142a4.218,4.218,0,0,0-.317.86,2.281,2.281,0,0,1-.378.1,3.485,3.485,0,0,1-.519.038,2.3,2.3,0,0,1-1.008-.182,3.958,3.958,0,0,1-.993-1.066,3.977,3.977,0,0,0-1.4-1.353,3.621,3.621,0,0,0-1.425-.353,1.666,1.666,0,0,0-.264.02,1.145,1.145,0,0,0-.831.548.922.922,0,0,0-.062.8,2.082,2.082,0,0,0,.943.881,2.714,2.714,0,0,1,.751.779,4.009,4.009,0,0,1,.338.7c.061.151.129.315.22.514a4.238,4.238,0,0,0,1.477,1.421,5.275,5.275,0,0,0,2.217.48l.086,0h0a6.79,6.79,0,0,0,.705-.05v1.835c0,.371-.377.456-.878.448l.384.129a13.817,13.817,0,0,0,9.412,0l.494-.184C24.032,33.236,23.555,33.155,23.551,32.856Z"/>
    <path id="Path_95" data-name="Path 95" class="cls-2" d="M24.24,33.567c-.285.033-.9-.077-.9-.558V28.933a3.824,3.824,0,0,0-.657-2.143c4.154-.672,6.095-2.874,6.095-6.891a6.219,6.219,0,0,0-1.432-4.089,3.76,3.76,0,0,0,.2-.805,4.818,4.818,0,0,0-.129-1.967l-.019-.081a7.219,7.219,0,0,0-.279-.926l-.078-.2-.213-.022s-.125-.013-.315-.013a3.3,3.3,0,0,0-1.03.151l-.138.046a7.482,7.482,0,0,0-1.63.719c-.233.139-.493.3-.773.487a14.421,14.421,0,0,0-6.964,0c-.283-.186-.544-.35-.779-.491a7.448,7.448,0,0,0-1.63-.719l-.138-.046a3.317,3.317,0,0,0-1.03-.151c-.19,0-.315.013-.315.013l-.212.022-.079.2a7.218,7.218,0,0,0-.279.926l-.019.081A4.79,4.79,0,0,0,11.372,15a3.756,3.756,0,0,0,.209.824,6.245,6.245,0,0,0-1.4,4.07c0,4.005,1.942,6.207,6.1,6.886a3.824,3.824,0,0,0-.571,1.379,2.964,2.964,0,0,1-.626.18,3.816,3.816,0,0,1-.572.042,2.619,2.619,0,0,1-1.187-.231,4.316,4.316,0,0,1-1.1-1.169,3.749,3.749,0,0,0-1.256-1.232,3.266,3.266,0,0,0-1.279-.321,1.34,1.34,0,0,0-.209.015.8.8,0,0,0-.581.375.572.572,0,0,0-.041.5,1.878,1.878,0,0,0,.786.7,3.031,3.031,0,0,1,.881.9,4.4,4.4,0,0,1,.366.749c.06.147.125.307.213.5a3.767,3.767,0,0,0,1.338,1.266,5.117,5.117,0,0,0,2.052.43h.078a9.376,9.376,0,0,0,1.05-.095v2.231c0,.547-.7.569-.867.569-.022,0,.353.129.353.129a13.94,13.94,0,0,0,8.752,0S24.262,33.564,24.24,33.567Z" transform="translate(-0.148 -0.149)"/>
    <path id="Path_96" data-name="Path 96" class="cls-3" d="M28.578,20.048a5.892,5.892,0,0,0-1.487-4.023,3.359,3.359,0,0,0,.261-.919,4.584,4.584,0,0,0-.143-1.92,7.03,7.03,0,0,0-.263-.878,3.258,3.258,0,0,0-1.2.121,7.669,7.669,0,0,0-1.7.735c-.318.19-.638.4-.892.566a13.983,13.983,0,0,0-7.087,0c-.254-.169-.577-.379-.9-.57a7.669,7.669,0,0,0-1.7-.735,3.258,3.258,0,0,0-1.2-.121,7.029,7.029,0,0,0-.263.878,4.584,4.584,0,0,0-.143,1.92,3.337,3.337,0,0,0,.268.936,5.906,5.906,0,0,0-1.459,4.006c0,4.2,2.27,6.12,6.405,6.626a3.491,3.491,0,0,0-.915,1.89,3.614,3.614,0,0,1-.886.277,3.424,3.424,0,0,1-1.99-.234,4.626,4.626,0,0,1-1.214-1.273,3.4,3.4,0,0,0-1.112-1.112,2.582,2.582,0,0,0-1.287-.278c-.278.044-.409.249-.351.4a1.591,1.591,0,0,0,.629.527,3.362,3.362,0,0,1,1.01,1.024,9.721,9.721,0,0,1,.6,1.287,3.438,3.438,0,0,0,1.2,1.112,4.625,4.625,0,0,0,1.888.381,11.254,11.254,0,0,0,1.463-.145v2.633a.72.72,0,0,1-.836.711,14,14,0,0,0,8.693,0,.721.721,0,0,1-.836-.712V29.081a3.49,3.49,0,0,0-.964-2.405C26.281,26.183,28.578,24.311,28.578,20.048Zm-17.911,6.6c-.108-.055-.166-.158-.13-.23s.154-.086.263-.03.166.158.13.23S10.774,26.7,10.666,26.644Zm.851.53c-.057.062-.179.042-.273-.044s-.124-.206-.067-.268.179-.042.273.044S11.574,27.112,11.517,27.174Zm.53.878c-.072.051-.193,0-.271-.105s-.083-.239-.011-.289.193,0,.271.105S12.119,28,12.047,28.052Zm.761.661c-.048.079-.186.082-.307.008s-.18-.2-.131-.276.186-.082.307-.008S12.856,28.634,12.808,28.713Zm.719.647c-.15-.018-.261-.112-.248-.209s.143-.16.292-.142.261.112.248.209S13.676,29.378,13.527,29.36Zm1.159.168c-.159-.009-.284-.1-.277-.2s.14-.179.3-.17.284.1.277.2S14.846,29.537,14.686,29.527Zm1.094-.11c-.17,0-.308-.088-.308-.2s.138-.2.308-.2.308.088.308.2S15.949,29.418,15.78,29.418Z" transform="translate(-0.298 -0.298)"/>
  </g>
</svg>
