<svg xmlns="http://www.w3.org/2000/svg" width="20.506" height="20.506" viewBox="0 0 20.506 20.506">
  <path id="Path_3" data-name="Path 3" d="M10.253,1.823a31.438,31.438,0,0,1,4.1.114,5.284,5.284,0,0,1,1.937.342,4,4,0,0,1,1.937,1.937,5.284,5.284,0,0,1,.342,1.937c0,1.025.114,1.367.114,4.1a31.438,31.438,0,0,1-.114,4.1,5.284,5.284,0,0,1-.342,1.937,4,4,0,0,1-1.937,1.937,5.284,5.284,0,0,1-1.937.342c-1.025,0-1.367.114-4.1.114a31.438,31.438,0,0,1-4.1-.114,5.284,5.284,0,0,1-1.937-.342,4,4,0,0,1-1.937-1.937,5.284,5.284,0,0,1-.342-1.937c0-1.025-.114-1.367-.114-4.1a31.438,31.438,0,0,1,.114-4.1,5.284,5.284,0,0,1,.342-1.937,4.092,4.092,0,0,1,.8-1.139,1.926,1.926,0,0,1,1.139-.8,5.284,5.284,0,0,1,1.937-.342,31.438,31.438,0,0,1,4.1-.114m0-1.823A33.661,33.661,0,0,0,6.038.114,7.033,7.033,0,0,0,3.532.57,4.46,4.46,0,0,0,1.709,1.709,4.46,4.46,0,0,0,.57,3.532,5.191,5.191,0,0,0,.114,6.038,33.661,33.661,0,0,0,0,10.253a33.661,33.661,0,0,0,.114,4.215A7.033,7.033,0,0,0,.57,16.975,4.46,4.46,0,0,0,1.709,18.8a4.46,4.46,0,0,0,1.823,1.139,7.033,7.033,0,0,0,2.506.456,33.661,33.661,0,0,0,4.215.114,33.661,33.661,0,0,0,4.215-.114,7.033,7.033,0,0,0,2.506-.456,4.78,4.78,0,0,0,2.962-2.962,7.033,7.033,0,0,0,.456-2.506c0-1.139.114-1.481.114-4.215a33.661,33.661,0,0,0-.114-4.215,7.033,7.033,0,0,0-.456-2.506A4.46,4.46,0,0,0,18.8,1.709,4.46,4.46,0,0,0,16.975.57,7.033,7.033,0,0,0,14.468.114,33.661,33.661,0,0,0,10.253,0m0,5.013a5.156,5.156,0,0,0-5.241,5.241,5.241,5.241,0,1,0,5.241-5.241m0,8.658a3.357,3.357,0,0,1-3.418-3.418,3.357,3.357,0,0,1,3.418-3.418,3.357,3.357,0,0,1,3.418,3.418,3.357,3.357,0,0,1-3.418,3.418M15.722,3.532a1.253,1.253,0,1,0,1.253,1.253,1.264,1.264,0,0,0-1.253-1.253" fill="#707070" fill-rule="evenodd"/>
</svg>
