<svg xmlns="http://www.w3.org/2000/svg" width="31.933" height="31.4" viewBox="0 0 31.933 31.4">
  <g id="code-rate" transform="translate(0 -4)">
    <path id="Path_53" data-name="Path 53" d="M205.261,128.4l5.511-7.611a.5.5,0,0,0-.7-.7l-7.611,5.511a2.633,2.633,0,1,0,2.8,2.8Zm-.267-1.336a2.65,2.65,0,0,0-1.194-1.194l4.33-3.135ZM201,128.233a1.633,1.633,0,1,1,1.633,1.633A1.635,1.635,0,0,1,201,128.233Z" transform="translate(-186.667 -108.267)" fill="#f2870f"/>
    <path id="Path_54" data-name="Path 54" d="M31.933,19.962q0-.342-.014-.686a15.756,15.756,0,0,0-1.174-5.333.489.489,0,0,0-.073-.173,16.1,16.1,0,0,0-3.312-4.956L27.348,8.8a.5.5,0,0,0-.219-.218,16.051,16.051,0,0,0-4.989-3.336.5.5,0,0,0-.064-.033.513.513,0,0,0-.064-.021A15.71,15.71,0,0,0,17,4.032C16.661,4.011,16.324,4,15.987,4h-.042A15.9,15.9,0,0,0,5.04,8.325c-.12.112-.237.227-.353.342l-.01.009-.012.013A15.959,15.959,0,0,0,2.752,28.923a2.625,2.625,0,0,0,2.176,1.144h.905a.5.5,0,0,0,0-1H4.928a1.626,1.626,0,0,1-1.349-.706,14.967,14.967,0,0,1-1.241-2.208l1.5-.622a.5.5,0,1,0-.383-.924l-1.5.623a14.9,14.9,0,0,1-.945-4.763H2.633a.5.5,0,1,0,0-1H1.009A14.835,14.835,0,0,1,1.952,14.7l1.5.623A.5.5,0,1,0,3.84,14.4l-1.5-.623a14.885,14.885,0,0,1,2.7-4.036l1.149,1.149a.5.5,0,0,0,.707-.707L5.743,9.036A14.983,14.983,0,0,1,9.777,6.329L10.4,7.84a.5.5,0,0,0,.924-.383L10.7,5.947a14.884,14.884,0,0,1,4.766-.938V6.633a.5.5,0,0,0,1,0V5.009c.157.005.314.012.471.022a14.7,14.7,0,0,1,4.29.928l-.621,1.5a.5.5,0,1,0,.924.383l.619-1.495a15.056,15.056,0,0,1,4.023,2.708l-1.132,1.132a.5.5,0,1,0,.707.707L26.881,9.76a15.1,15.1,0,0,1,2.7,4.025l-1.491.618a.5.5,0,1,0,.383.924l1.495-.619a14.747,14.747,0,0,1,.948,4.611c0,.05,0,.1,0,.149H29.3a.5.5,0,0,0,0,1h1.625a14.846,14.846,0,0,1-.944,4.764l-1.5-.623a.5.5,0,0,0-.383.924l1.5.623a15.018,15.018,0,0,1-1.242,2.207,1.625,1.625,0,0,1-1.349.706H26.1a.5.5,0,0,0,0,1h.905a2.625,2.625,0,0,0,2.176-1.144,15.829,15.829,0,0,0,2.751-8.95s0,0,0-.007S31.933,19.963,31.933,19.962Z" fill="#8e8cd8"/>
    <path id="Path_55" data-name="Path 55" d="M126.367,300H114.633A2.636,2.636,0,0,0,112,302.633v6.4a2.636,2.636,0,0,0,2.633,2.633h11.733A2.636,2.636,0,0,0,129,309.033v-6.4A2.636,2.636,0,0,0,126.367,300ZM128,309.033a1.635,1.635,0,0,1-1.633,1.633H114.633A1.635,1.635,0,0,1,113,309.033v-6.4A1.635,1.635,0,0,1,114.633,301h11.733A1.635,1.635,0,0,1,128,302.633Z" transform="translate(-104.533 -276.267)" fill="#f2870f"/>
    <path id="Path_56" data-name="Path 56" d="M155.52,340.147a.5.5,0,0,0-.707,0l-2.667,2.667a.5.5,0,0,0,0,.707l2.667,2.667a.5.5,0,0,0,.707-.707l-2.313-2.313,2.313-2.313A.5.5,0,0,0,155.52,340.147Z" transform="translate(-141.867 -313.6)" fill="#8e8cd8"/>
    <path id="Path_57" data-name="Path 57" d="M272.854,340.147a.5.5,0,0,0-.707.707l2.313,2.313-2.313,2.313a.5.5,0,1,0,.707.707l2.667-2.667a.5.5,0,0,0,0-.707Z" transform="translate(-253.867 -313.6)" fill="#8e8cd8"/>
    <path id="Path_58" data-name="Path 58" d="M232.5,396a.5.5,0,1,0,.353.147A.5.5,0,0,0,232.5,396Z" transform="translate(-216.533 -365.867)" fill="#8e8cd8"/>
    <path id="Path_59" data-name="Path 59" d="M256.5,396a.5.5,0,1,0,.353.147A.5.5,0,0,0,256.5,396Z" transform="translate(-238.933 -365.867)" fill="#8e8cd8"/>
    <path id="Path_60" data-name="Path 60" d="M208.5,396a.5.5,0,1,0,.353.147A.5.5,0,0,0,208.5,396Z" transform="translate(-194.133 -365.867)" fill="#8e8cd8"/>
  </g>
</svg>
