<svg xmlns="http://www.w3.org/2000/svg" width="20.506" height="16.633" viewBox="0 0 20.506 16.633">
  <path id="Path_2" data-name="Path 2" d="M44.494,18.633A11.856,11.856,0,0,0,56.456,6.671V6.1a9.26,9.26,0,0,0,2.051-2.165,9.457,9.457,0,0,1-2.392.684,4.432,4.432,0,0,0,1.823-2.278,10.449,10.449,0,0,1-2.62,1.025A4.069,4.069,0,0,0,52.24,2a4.28,4.28,0,0,0-4.215,4.215,2.221,2.221,0,0,0,.114.911,11.778,11.778,0,0,1-8.658-4.443,4.363,4.363,0,0,0-.57,2.165A4.526,4.526,0,0,0,40.734,8.38,3.841,3.841,0,0,1,38.8,7.81h0a4.164,4.164,0,0,0,3.418,4.1,3.512,3.512,0,0,1-1.139.114,1.939,1.939,0,0,1-.8-.114,4.316,4.316,0,0,0,3.987,2.962A8.6,8.6,0,0,1,39.025,16.7,3.154,3.154,0,0,1,38,16.582a10.753,10.753,0,0,0,6.494,2.051" transform="translate(-38 -2)" fill="#707070" fill-rule="evenodd"/>
</svg>
