<svg xmlns="http://www.w3.org/2000/svg" width="53" height="41.384" viewBox="0 0 53 41.384">
  <g id="ui-design" transform="translate(0 -56)">
    <path id="Path_38" data-name="Path 38" d="M32.778,89.556a.779.779,0,1,0-.55-.228A.781.781,0,0,0,32.778,89.556Z" transform="translate(-28.681 -28.681)" fill="#8e8cd8"/>
    <path id="Path_39" data-name="Path 39" d="M56.778,89.556a.779.779,0,1,0-.55-.228A.781.781,0,0,0,56.778,89.556Z" transform="translate(-50.192 -28.681)" fill="#8e8cd8"/>
    <path id="Path_40" data-name="Path 40" d="M80.778,89.556a.779.779,0,1,0-.55-.228A.781.781,0,0,0,80.778,89.556Z" transform="translate(-71.703 -28.681)" fill="#8e8cd8"/>
    <path id="Path_41" data-name="Path 41" d="M112.778,89.556h31.53a.778.778,0,0,0,0-1.556h-31.53a.778.778,0,1,0,0,1.556Z" transform="translate(-100.384 -28.681)" fill="#f2870f"/>
    <path id="Path_42" data-name="Path 42" d="M448.778,89.556h1.659a.778.778,0,1,0,0-1.556h-1.659a.778.778,0,1,0,0,1.556Z" transform="translate(-401.534 -28.681)" fill="#8e8cd8"/>
    <path id="Path_43" data-name="Path 43" d="M66.2,168H49.608A1.609,1.609,0,0,0,48,169.608v3.319a1.609,1.609,0,0,0,1.608,1.608H66.2a1.609,1.609,0,0,0,1.608-1.608v-3.319A1.609,1.609,0,0,0,66.2,168Zm.052,4.927a.052.052,0,0,1-.052.052H49.608a.052.052,0,0,1-.052-.052v-3.319a.052.052,0,0,1,.052-.052H66.2a.052.052,0,0,1,.052.052Z" transform="translate(-43.022 -100.384)" fill="#8e8cd8"/>
    <path id="Path_44" data-name="Path 44" d="M348.394,177.659h-5.158a2.437,2.437,0,0,0-4.619,0h-1.839a.778.778,0,0,0,0,1.556h1.839a2.437,2.437,0,0,0,4.619,0h5.158a.778.778,0,0,0,0-1.556Zm-7.468,1.66a.882.882,0,1,1,.882-.882A.883.883,0,0,1,340.927,179.319Z" transform="translate(-301.151 -107.554)" fill="#f2870f"/>
    <path id="Path_45" data-name="Path 45" d="M259.267,168a3.267,3.267,0,1,0,3.267,3.267A3.271,3.271,0,0,0,259.267,168Zm0,4.978a1.711,1.711,0,1,1,1.711-1.711A1.713,1.713,0,0,1,259.267,172.978Z" transform="translate(-229.448 -100.384)" fill="#8e8cd8"/>
    <path id="Path_46" data-name="Path 46" d="M66.2,256H49.608A1.609,1.609,0,0,0,48,257.608v3.319a1.609,1.609,0,0,0,1.608,1.608H66.2a1.609,1.609,0,0,0,1.608-1.608v-3.319A1.609,1.609,0,0,0,66.2,256Zm.052,4.927a.052.052,0,0,1-.052.052H49.608a.052.052,0,0,1-.052-.052v-3.319a.052.052,0,0,1,.052-.052H66.2a.052.052,0,0,1,.052.052Z" transform="translate(-43.022 -179.256)" fill="#f2870f"/>
    <path id="Path_47" data-name="Path 47" d="M348.394,265.659h-1.01a2.437,2.437,0,0,0-4.619,0h-5.988a.778.778,0,0,0,0,1.556h5.988a2.437,2.437,0,0,0,4.619,0h1.01a.778.778,0,1,0,0-1.556Zm-3.319,1.659a.882.882,0,1,1,.882-.882A.883.883,0,0,1,345.075,267.319Z" transform="translate(-301.151 -186.427)" fill="#8e8cd8"/>
    <path id="Path_48" data-name="Path 48" d="M259.267,256a3.267,3.267,0,1,0,3.267,3.267A3.271,3.271,0,0,0,259.267,256Zm0,4.978a1.711,1.711,0,1,1,1.711-1.711A1.713,1.713,0,0,1,259.267,260.978Z" transform="translate(-229.448 -179.256)" fill="#8e8cd8"/>
    <path id="Path_49" data-name="Path 49" d="M66.2,344H49.608A1.609,1.609,0,0,0,48,345.608v3.319a1.609,1.609,0,0,0,1.608,1.608H66.2a1.609,1.609,0,0,0,1.608-1.608v-3.319A1.609,1.609,0,0,0,66.2,344Zm.052,4.927a.052.052,0,0,1-.052.052H49.608a.052.052,0,0,1-.052-.052v-3.319a.052.052,0,0,1,.052-.052H66.2a.052.052,0,0,1,.052.052Z" transform="translate(-43.022 -258.129)" fill="#8e8cd8"/>
    <path id="Path_50" data-name="Path 50" d="M348.394,353.659h-4.329a2.437,2.437,0,0,0-4.619,0h-2.669a.778.778,0,0,0,0,1.556h2.669a2.437,2.437,0,0,0,4.619,0h4.329a.778.778,0,0,0,0-1.556Zm-6.638,1.659a.882.882,0,1,1,.882-.882A.883.883,0,0,1,341.756,355.319Z" transform="translate(-301.151 -265.299)" fill="#8e8cd8"/>
    <path id="Path_51" data-name="Path 51" d="M259.267,344a3.267,3.267,0,1,0,3.267,3.267A3.271,3.271,0,0,0,259.267,344Zm0,4.978a1.711,1.711,0,1,1,1.711-1.711A1.713,1.713,0,0,1,259.267,348.978Z" transform="translate(-229.448 -258.129)" fill="#f2870f"/>
    <path id="Path_52" data-name="Path 52" d="M48.9,56H4.1A4.1,4.1,0,0,0,0,60.1v33.19a4.1,4.1,0,0,0,4.1,4.1H48.9a4.1,4.1,0,0,0,4.1-4.1V60.1A4.1,4.1,0,0,0,48.9,56ZM4.1,57.556H48.9A2.544,2.544,0,0,1,51.444,60.1v2.541H1.556V60.1A2.544,2.544,0,0,1,4.1,57.556ZM48.9,95.828H4.1a2.544,2.544,0,0,1-2.541-2.541V64.194H51.444V93.287A2.544,2.544,0,0,1,48.9,95.828Z" fill="#8e8cd8"/>
  </g>
</svg>
