<svg xmlns="http://www.w3.org/2000/svg" width="53.272" height="46.6" viewBox="0 0 53.272 46.6">
  <g id="programming" transform="translate(0 -32)">
    <path id="Path_8" data-name="Path 8" d="M32.782,89.564a.783.783,0,1,0-.553-.229A.785.785,0,0,0,32.782,89.564Z" transform="translate(-28.664 -50.162)" fill="#f2870f"/>
    <path id="Path_9" data-name="Path 9" d="M56.782,89.564a.783.783,0,1,0-.553-.229A.785.785,0,0,0,56.782,89.564Z" transform="translate(-50.162 -50.162)" fill="#f2870f"/>
    <path id="Path_10" data-name="Path 10" d="M80.782,89.564a.783.783,0,1,0-.553-.229A.785.785,0,0,0,80.782,89.564Z" transform="translate(-71.66 -50.162)" fill="#f2870f"/>
    <path id="Path_11" data-name="Path 11" d="M448.782,89.564h1.668a.782.782,0,0,0,0-1.564h-1.668a.782.782,0,0,0,0,1.564Z" transform="translate(-401.296 -50.162)" fill="#f2870f"/>
    <path id="Path_12" data-name="Path 12" d="M346.79,312h-8.34a2.453,2.453,0,0,0-2.45,2.45v5.838a2.453,2.453,0,0,0,2.45,2.45h8.34a2.453,2.453,0,0,0,2.45-2.45V314.45A2.453,2.453,0,0,0,346.79,312Zm.886,8.288a.887.887,0,0,1-.886.886h-8.34a.887.887,0,0,1-.886-.886V314.45a.887.887,0,0,1,.886-.886h8.34a.887.887,0,0,1,.886.886Z" transform="translate(-300.972 -250.81)" fill="#8e8cd8"/>
    <path id="Path_13" data-name="Path 13" d="M338.45,188.9a2.45,2.45,0,1,0-2.45-2.45A2.453,2.453,0,0,0,338.45,188.9Zm0-3.336a.886.886,0,1,1-.886.886A.887.887,0,0,1,338.45,185.564Z" transform="translate(-300.972 -136.154)" fill="#f2870f"/>
    <path id="Path_14" data-name="Path 14" d="M373.786,344h-5a.782.782,0,0,0,0,1.564h5a.782.782,0,1,0,0-1.564Z" transform="translate(-329.636 -279.474)" fill="#f2870f"/>
    <path id="Path_15" data-name="Path 15" d="M371.284,368h-2.5a.782.782,0,0,0,0,1.564h2.5a.782.782,0,1,0,0-1.564Z" transform="translate(-329.636 -300.972)" fill="#f2870f"/>
    <path id="Path_16" data-name="Path 16" d="M32.782,161.564H34.45a.782.782,0,1,0,0-1.564H32.782a.782.782,0,1,0,0,1.564Z" transform="translate(-28.664 -114.656)" fill="#f2870f"/>
    <path id="Path_17" data-name="Path 17" d="M32.782,201.564H34.45a.782.782,0,1,0,0-1.564H32.782a.782.782,0,1,0,0,1.564Z" transform="translate(-28.664 -150.486)" fill="#f2870f"/>
    <path id="Path_18" data-name="Path 18" d="M49.616,240h-.834a.782.782,0,1,0,0,1.564h.834a.782.782,0,1,0,0-1.564Z" transform="translate(-42.996 -186.316)" fill="#f2870f"/>
    <path id="Path_19" data-name="Path 19" d="M32.782,281.564H34.45a.782.782,0,0,0,0-1.564H32.782a.782.782,0,0,0,0,1.564Z" transform="translate(-28.664 -222.146)" fill="#f2870f"/>
    <path id="Path_20" data-name="Path 20" d="M80.782,161.564h3.336a.782.782,0,1,0,0-1.564H80.782a.782.782,0,1,0,0,1.564Z" transform="translate(-71.66 -114.656)" fill="#f2870f"/>
    <path id="Path_21" data-name="Path 21" d="M80.782,281.564h6.672a.782.782,0,0,0,0-1.564H80.782a.782.782,0,0,0,0,1.564Z" transform="translate(-71.66 -222.146)" fill="#f2870f"/>
    <path id="Path_22" data-name="Path 22" d="M80.782,201.564h8.34a.782.782,0,1,0,0-1.564h-8.34a.782.782,0,0,0,0,1.564Z" transform="translate(-71.66 -150.486)" fill="#f2870f"/>
    <path id="Path_23" data-name="Path 23" d="M88.782,240a.782.782,0,1,0,0,1.564h3.336a.782.782,0,1,0,0-1.564Z" transform="translate(-78.826 -186.316)" fill="#f2870f"/>
    <path id="Path_24" data-name="Path 24" d="M156.066,240.782a.782.782,0,0,0-.782-.782h-2.5a.782.782,0,1,0,0,1.564h2.5A.782.782,0,0,0,156.066,240.782Z" transform="translate(-136.154 -186.316)" fill="#f2870f"/>
    <path id="Path_25" data-name="Path 25" d="M208.782,240a.783.783,0,1,0,.553.229A.785.785,0,0,0,208.782,240Z" transform="translate(-186.316 -186.316)" fill="#f2870f"/>
    <path id="Path_26" data-name="Path 26" d="M192.229,320.229a.78.78,0,1,0,.553-.229A.785.785,0,0,0,192.229,320.229Z" transform="translate(-171.984 -257.976)" fill="#f2870f"/>
    <path id="Path_27" data-name="Path 27" d="M49.616,320h-.834a.782.782,0,0,0,0,1.564h.834a.782.782,0,0,0,0-1.564Z" transform="translate(-42.996 -257.976)" fill="#f2870f"/>
    <path id="Path_28" data-name="Path 28" d="M97.07,320.782a.782.782,0,0,0-.782-.782H88.782a.782.782,0,0,0,0,1.564h7.506A.782.782,0,0,0,97.07,320.782Z" transform="translate(-78.826 -257.976)" fill="#f2870f"/>
    <path id="Path_29" data-name="Path 29" d="M49.616,360h-.834a.782.782,0,1,0,0,1.564h.834a.782.782,0,1,0,0-1.564Z" transform="translate(-42.996 -293.806)" fill="#f2870f"/>
    <path id="Path_30" data-name="Path 30" d="M88.782,360a.782.782,0,1,0,0,1.564h5a.782.782,0,1,0,0-1.564Z" transform="translate(-78.826 -293.806)" fill="#f2870f"/>
    <path id="Path_31" data-name="Path 31" d="M172.066,360.782a.782.782,0,0,0-.782-.782h-2.5a.782.782,0,0,0,0,1.564h2.5A.782.782,0,0,0,172.066,360.782Z" transform="translate(-150.486 -293.806)" fill="#f2870f"/>
    <path id="Path_32" data-name="Path 32" d="M34.45,400H32.782a.782.782,0,1,0,0,1.564H34.45a.782.782,0,1,0,0-1.564Z" transform="translate(-28.664 -329.636)" fill="#f2870f"/>
    <path id="Path_33" data-name="Path 33" d="M83.284,400h-2.5a.782.782,0,1,0,0,1.564h2.5a.782.782,0,1,0,0-1.564Z" transform="translate(-71.66 -329.636)" fill="#f2870f"/>
    <path id="Path_34" data-name="Path 34" d="M202.45,400h-1.668a.782.782,0,1,0,0,1.564h1.668a.782.782,0,1,0,0-1.564Z" transform="translate(-179.15 -329.636)" fill="#f2870f"/>
    <path id="Path_35" data-name="Path 35" d="M144.782,161.564h6.672a.782.782,0,1,0,0-1.564h-6.672a.782.782,0,1,0,0,1.564Z" transform="translate(-128.988 -114.656)" fill="#f2870f"/>
    <path id="Path_36" data-name="Path 36" d="M140.118,400h-3.336a.782.782,0,1,0,0,1.564h3.336a.782.782,0,1,0,0-1.564Z" transform="translate(-121.822 -329.636)" fill="#f2870f"/>
    <path id="Path_37" data-name="Path 37" d="M49.154,34.5H27.418v-1.72a.782.782,0,0,0-1.564,0V34.5H4.118A4.123,4.123,0,0,0,0,38.62V71.98A4.123,4.123,0,0,0,4.118,76.1H25.854v1.72a.782.782,0,1,0,1.564,0V76.1H49.154a4.123,4.123,0,0,0,4.118-4.118V38.62A4.123,4.123,0,0,0,49.154,34.5Zm0,1.564a2.557,2.557,0,0,1,2.554,2.554v2.554H27.418V39.4H44.15a.782.782,0,1,0,0-1.564H27.418V36.066Zm-45.036,0H25.854v1.772h-13.4a.782.782,0,0,0,0,1.564h13.4v1.772H1.564V38.62A2.557,2.557,0,0,1,4.118,36.066Zm0,38.469A2.557,2.557,0,0,1,1.564,71.98V42.738h24.29v14.23h0V74.534Zm23.3-11.78h3.388a.887.887,0,0,1,.886.886v5.838a.887.887,0,0,1-.886.886H27.418Zm0-5.462,5.056-5.056,4.451,4.451a.782.782,0,0,0,1.106,0L46.7,48.014v8.955a.887.887,0,0,1-.886.886h-18.4Zm10.06-2.263-4.451-4.451a.782.782,0,0,0-1.106,0l-4.5,4.5V46.908H45.6ZM49.154,74.534H27.418V71.928h3.388a2.453,2.453,0,0,0,2.45-2.45V63.64a2.453,2.453,0,0,0-2.45-2.45H27.418V59.418h18.4a2.453,2.453,0,0,0,2.45-2.45V47.794a2.453,2.453,0,0,0-2.45-2.45h-18.4V42.738h24.29V71.98A2.557,2.557,0,0,1,49.154,74.534Z" fill="#8e8cd8"/>
  </g>
</svg>
